<svg xmlns="http://www.w3.org/2000/svg" width="17.471" height="12.904" viewBox="0 0 17.471 12.904">
  <path id="Icon_awesome-address-card" data-name="Icon awesome-address-card" d="M15.328,2.25H1.393A1.35,1.35,0,0,0,0,3.552V13.1a1.35,1.35,0,0,0,1.393,1.3H15.328a1.351,1.351,0,0,0,1.393-1.3V3.552A1.351,1.351,0,0,0,15.328,2.25ZM5.109,4.854A1.8,1.8,0,0,1,6.967,6.591,1.8,1.8,0,0,1,5.109,8.327,1.8,1.8,0,0,1,3.251,6.591,1.8,1.8,0,0,1,5.109,4.854Zm3.251,6.424a.6.6,0,0,1-.65.521h-5.2a.6.6,0,0,1-.65-.521v-.521A1.79,1.79,0,0,1,3.809,9.2h.145a3.184,3.184,0,0,0,2.311,0H6.41a1.79,1.79,0,0,1,1.951,1.563Zm6.5-1.432a.226.226,0,0,1-.232.217h-4.18a.226.226,0,0,1-.232-.217V9.412a.226.226,0,0,1,.232-.217h4.18a.226.226,0,0,1,.232.217Zm0-1.736a.226.226,0,0,1-.232.217h-4.18a.226.226,0,0,1-.232-.217V7.676a.226.226,0,0,1,.232-.217h4.18a.226.226,0,0,1,.232.217Zm0-1.736a.226.226,0,0,1-.232.217h-4.18a.226.226,0,0,1-.232-.217V5.94a.226.226,0,0,1,.232-.217h4.18a.226.226,0,0,1,.232.217Z" transform="translate(0.375 -1.875)" fill="none" stroke="#000" stroke-width="0.75"/>
</svg>
