<svg xmlns="http://www.w3.org/2000/svg" width="83.456" height="83.456" viewBox="0 0 83.456 83.456">
  <path id="Icon_awesome-user-circle" data-name="Icon awesome-user-circle" d="M41.728.562A41.728,41.728,0,1,0,83.456,42.29,41.721,41.721,0,0,0,41.728.562Zm0,16.153A14.807,14.807,0,1,1,26.921,31.522,14.807,14.807,0,0,1,41.728,16.715Zm0,57.88a32.243,32.243,0,0,1-24.65-11.475A18.76,18.76,0,0,1,33.651,53.059a4.117,4.117,0,0,1,1.195.185A22.277,22.277,0,0,0,41.728,54.4a22.193,22.193,0,0,0,6.882-1.161,4.117,4.117,0,0,1,1.195-.185A18.76,18.76,0,0,1,66.377,63.121,32.243,32.243,0,0,1,41.728,74.6Z" transform="translate(0 -0.563)" fill="#ff4a52"/>
</svg>
