<svg xmlns="http://www.w3.org/2000/svg" width="32.498" height="26" viewBox="0 0 32.498 26">
  <path id="Icon_awesome-user-edit" data-name="Icon awesome-user-edit" d="M11.375,13a6.5,6.5,0,1,0-6.5-6.5A6.5,6.5,0,0,0,11.375,13Zm4.55,1.625h-.848a8.84,8.84,0,0,1-7.4,0H6.825A6.827,6.827,0,0,0,0,21.449v2.112A2.438,2.438,0,0,0,2.437,26H16.4a2.439,2.439,0,0,1-.132-1.082l.345-3.092.061-.564.4-.4L21,16.935a6.755,6.755,0,0,0-5.073-2.31ZM18.225,22l-.345,3.1a.808.808,0,0,0,.894.894l3.092-.345,7-7-3.641-3.641-7,7Zm13.919-8.348L30.219,11.73a1.217,1.217,0,0,0-1.716,0L26.583,13.65l-.208.208L30.021,17.5l2.123-2.123a1.223,1.223,0,0,0,0-1.721Z" fill="#ff4a52"/>
</svg>
