<svg xmlns="http://www.w3.org/2000/svg" width="21.599" height="21.599" viewBox="0 0 21.599 21.599">
  <path id="Icon_awesome-history" data-name="Icon awesome-history" d="M22.161,11.341A10.8,10.8,0,0,1,4.584,19.77a1.044,1.044,0,0,1-.08-1.551l.491-.491a1.047,1.047,0,0,1,1.389-.086A8.013,8.013,0,1,0,5.872,5.524l2.21,2.21A.7.7,0,0,1,7.59,8.923H1.259a.7.7,0,0,1-.7-.7V1.9A.7.7,0,0,1,1.752,1.4L3.9,3.553a10.8,10.8,0,0,1,18.259,7.788Zm-7.878,3.431.428-.55a1.045,1.045,0,0,0-.183-1.467l-1.772-1.379V6.833A1.045,1.045,0,0,0,11.71,5.788h-.7A1.045,1.045,0,0,0,9.968,6.833V12.74l2.848,2.215a1.045,1.045,0,0,0,1.467-.183Z" transform="translate(-0.563 -0.563)" fill="#ff4a52"/>
</svg>
