<svg id="Group_1" data-name="Group 1" xmlns="http://www.w3.org/2000/svg" width="23.328" height="23.315" viewBox="0 0 23.328 23.315">
  <path id="Path_2" data-name="Path 2" d="M23.328,3.61,19.861.143,15.043,4.961a9.944,9.944,0,1,0,3.463,3.47ZM19.861,2.159,21.312,3.61l-.9.9L18.962,3.059ZM17.954,4.067,19.4,5.517l-5.568,5.568L12.4,9.616Zm-5.675,9.365c0,.025,0,.051,0,.077a2.331,2.331,0,1,1-2.331-2.331l.094,0-1,3.243ZM11.2,12.272l.432-1.407.957.981Zm-.617-2.85-.113.367A3.757,3.757,0,1,0,13.671,13l.377-.116L15.2,11.734a5.546,5.546,0,1,1-3.46-3.473Zm-.633,12.61A8.524,8.524,0,1,1,14,6.006L12.84,7.164A6.973,6.973,0,1,0,16.3,10.636l1.159-1.159A8.526,8.526,0,0,1,9.949,22.032Z" transform="translate(0 -0.143)" fill="#a4a4a4"/>
</svg>
