<?xml version="1.0" standalone="no"?>
<!DOCTYPE svg PUBLIC "-//W3C//DTD SVG 20010904//EN"
 "http://www.w3.org/TR/2001/REC-SVG-20010904/DTD/svg10.dtd">
<svg version="1.0" xmlns="http://www.w3.org/2000/svg"
 width="512.000000pt" height="512.000000pt" viewBox="0 0 512.000000 512.000000"
 preserveAspectRatio="xMidYMid meet">

<g transform="translate(0.000000,512.000000) scale(0.100000,-0.100000)"
fill="#000000" stroke="none">
<path d="M4055 5113 c-421 -67 -738 -383 -801 -798 -39 -253 42 -536 227 -800
155 -220 609 -615 707 -615 10 0 58 27 108 61 347 237 617 539 738 826 62 147
81 240 80 403 -1 171 -19 250 -88 394 -52 108 -94 169 -179 255 -117 120 -273
210 -432 252 -79 20 -291 34 -360 22z m333 -193 c261 -74 464 -281 538 -551
25 -89 25 -279 0 -373 -58 -217 -187 -418 -407 -631 -100 -97 -192 -174 -291
-244 l-47 -34 -63 46 c-181 130 -368 310 -485 467 -78 105 -166 279 -194 385
-29 110 -30 279 -1 387 79 292 319 515 613 567 81 15 252 5 337 -19z"/>
<path d="M4085 4596 c-324 -81 -438 -480 -204 -715 203 -202 549 -148 678 107
47 93 59 182 38 278 -52 238 -283 387 -512 330z m200 -180 c132 -56 190 -226
120 -355 -49 -88 -122 -131 -227 -131 -78 0 -134 26 -187 87 -51 57 -64 98
-59 183 5 89 42 152 117 197 29 18 65 34 80 36 38 7 120 -2 156 -17z"/>
<path d="M825 3663 c-136 -18 -307 -82 -412 -154 -69 -47 -188 -164 -239 -236
-175 -243 -219 -565 -118 -862 105 -309 399 -652 774 -905 105 -71 116 -70
238 13 201 138 449 375 571 547 86 121 175 305 207 429 49 188 34 412 -41 596
-78 193 -254 383 -445 479 -150 76 -374 115 -535 93z m245 -177 c299 -54 533
-271 612 -565 29 -107 28 -276 -1 -386 -28 -105 -103 -258 -182 -370 -83 -118
-306 -340 -444 -443 -60 -45 -113 -82 -116 -82 -24 0 -239 179 -359 299 -212
213 -324 386 -382 587 -29 103 -31 295 -4 393 108 393 486 637 876 567z"/>
<path d="M850 3146 c-83 -18 -149 -54 -211 -115 -64 -65 -103 -140 -120 -234
-51 -274 202 -530 481 -487 183 29 334 179 358 357 31 232 -118 439 -347 483
-66 12 -90 12 -161 -4z m213 -193 c83 -46 127 -123 127 -225 0 -79 -23 -130
-82 -184 -56 -52 -102 -67 -188 -62 -89 5 -152 42 -196 116 -55 90 -55 174 0
264 70 118 216 157 339 91z"/>
<path d="M3530 3132 c-70 -71 0 -172 95 -136 19 8 45 55 45 83 0 30 -41 70
-77 77 -27 5 -37 1 -63 -24z"/>
<path d="M3283 2971 c-39 -24 -50 -68 -29 -109 17 -34 34 -42 81 -42 66 0 101
92 53 138 -34 31 -68 35 -105 13z"/>
<path d="M3050 2813 c-89 -33 -74 -163 19 -163 44 0 66 13 81 50 17 42 -2 88
-46 106 -19 8 -35 14 -36 13 -2 0 -10 -3 -18 -6z"/>
<path d="M2777 2631 c-56 -28 -62 -104 -11 -137 82 -54 174 42 114 118 -25 33
-62 39 -103 19z"/>
<path d="M2502 2447 c-23 -25 -29 -75 -12 -107 14 -27 64 -41 100 -28 36 12
50 35 50 81 0 69 -90 105 -138 54z"/>
<path d="M2245 2275 c-32 -31 -32 -75 -1 -111 53 -63 155 -16 142 65 -11 70
-92 96 -141 46z"/>
<path d="M4040 2208 c-96 -13 -249 -69 -342 -124 -102 -60 -238 -192 -302
-291 -103 -160 -149 -319 -149 -513 0 -316 147 -613 455 -917 180 -179 424
-363 479 -363 57 0 320 199 490 370 210 212 359 450 416 665 22 85 26 121 27
245 0 168 -19 257 -84 397 -48 102 -88 161 -164 242 -219 229 -515 333 -826
289z m252 -169 c306 -48 551 -267 634 -570 27 -98 25 -290 -4 -394 -56 -197
-194 -407 -403 -610 -109 -105 -317 -275 -337 -275 -18 0 -235 173 -324 259
-224 214 -363 426 -419 637 -29 108 -29 279 -1 385 102 380 474 627 854 568z"/>
<path d="M4106 1699 c-124 -20 -248 -115 -305 -232 -126 -257 33 -562 318
-608 277 -44 533 214 482 488 -33 182 -168 320 -345 352 -66 12 -79 12 -150 0z
m198 -198 c83 -44 130 -123 130 -222 1 -225 -273 -338 -433 -177 -50 49 -71
102 -71 178 0 198 198 315 374 221z"/>
<path d="M1999 2117 c-62 -48 -40 -137 37 -153 44 -9 94 35 94 82 0 65 -81
109 -131 71z"/>
<path d="M1735 1935 c-17 -16 -25 -35 -25 -57 1 -106 145 -116 166 -12 4 24 0
37 -21 62 -34 41 -84 44 -120 7z"/>
<path d="M1985 1758 c-32 -38 -29 -81 11 -115 29 -27 54 -29 93 -8 75 38 43
155 -43 155 -26 0 -40 -7 -61 -32z"/>
<path d="M2245 1595 c-47 -46 -24 -125 42 -141 53 -14 113 46 99 99 -16 66
-95 89 -141 42z"/>
<path d="M2505 1428 c-47 -41 -28 -129 30 -144 59 -15 109 27 107 89 -1 40
-41 77 -82 77 -16 0 -41 -10 -55 -22z"/>
<path d="M2759 1251 c-17 -18 -29 -40 -29 -56 0 -37 50 -85 88 -85 60 0 105
84 69 131 -35 46 -88 50 -128 10z"/>
<path d="M3035 1098 c-52 -28 -62 -92 -20 -133 31 -32 75 -32 111 -1 73 62 -7
181 -91 134z"/>
</g>
</svg>
