<svg xmlns="http://www.w3.org/2000/svg" width="22.815" height="22.815" viewBox="0 0 22.815 22.815">
  <path id="Icon_awesome-info-circle" data-name="Icon awesome-info-circle" d="M11.97.562A11.408,11.408,0,1,0,23.378,11.97,11.409,11.409,0,0,0,11.97.562Zm0,5.06a1.932,1.932,0,1,1-1.932,1.932A1.932,1.932,0,0,1,11.97,5.622Zm2.576,11.684a.552.552,0,0,1-.552.552H9.946a.552.552,0,0,1-.552-.552V16.2a.552.552,0,0,1,.552-.552H10.5V12.706H9.946a.552.552,0,0,1-.552-.552v-1.1a.552.552,0,0,1,.552-.552H12.89a.552.552,0,0,1,.552.552v4.6h.552a.552.552,0,0,1,.552.552Z" transform="translate(-0.563 -0.563)" fill="#ff4a52"/>
</svg>
