<svg xmlns="http://www.w3.org/2000/svg" width="14.038" height="11.734" viewBox="0 0 14.038 11.734">
  <g id="money-svgrepo-com_1_" data-name="money-svgrepo-com (1)" transform="translate(0 -27.9)">
    <path id="Path_16" data-name="Path 16" d="M10.157,32a.738.738,0,1,1,.737.7A.717.717,0,0,1,10.157,32Zm-7.013.7a.7.7,0,1,0,0-1.391.7.7,0,1,0,0,1.391ZM0,34.952v-5.9A1.184,1.184,0,0,1,1.216,27.9h11.6a1.184,1.184,0,0,1,1.216,1.147v5.9A1.184,1.184,0,0,1,12.819,36.1H1.216A1.186,1.186,0,0,1,0,34.952Zm1.038-1.191a1.411,1.411,0,0,1,.215-.019A1.2,1.2,0,0,1,2.484,34.9a1.318,1.318,0,0,1-.02.214h9.007a1.169,1.169,0,0,1-.009-.143,1.2,1.2,0,0,1,1.231-1.161,1.392,1.392,0,0,1,.3.035V30.289a1.245,1.245,0,0,1-.3.035,1.2,1.2,0,0,1-1.231-1.161,1.171,1.171,0,0,1,.037-.284H2.464a1.06,1.06,0,0,1,.02.214,1.2,1.2,0,0,1-1.231,1.161,1.114,1.114,0,0,1-.215-.019S1.038,33.761,1.038,33.761Zm12.481,3.115H.539a.491.491,0,1,0,0,.98h12.98a.491.491,0,1,0,0-.98Zm0,1.778H.539a.491.491,0,1,0,0,.98h12.98a.491.491,0,1,0,0-.98ZM4.354,32a2.6,2.6,0,0,1,2.665-2.514,2.518,2.518,0,1,1,0,5.028A2.6,2.6,0,0,1,4.354,32Zm1.3.084.5.474.516.49.519-.487,1.19-1.118-.516-.49L6.675,32.07l-.5-.474Z"/>
  </g>
</svg>
