<?xml version="1.0" standalone="no"?>
<!DOCTYPE svg PUBLIC "-//W3C//DTD SVG 20010904//EN"
 "http://www.w3.org/TR/2001/REC-SVG-20010904/DTD/svg10.dtd">
<svg version="1.0" xmlns="http://www.w3.org/2000/svg"
 width="4096.000000pt" height="4096.000000pt" viewBox="0 0 4096.000000 4096.000000"
 preserveAspectRatio="xMidYMid meet">

<g transform="translate(0.000000,4096.000000) scale(0.100000,-0.100000)"
fill="#000000" stroke="none">
<path d="M19985 39674 c-265 -9 -631 -26 -825 -40 -3724 -256 -7241 -1567
-10220 -3810 -1277 -960 -2445 -2094 -3443 -3339 -2461 -3071 -3904 -6770
-4172 -10690 -32 -476 -39 -717 -39 -1315 0 -714 17 -1118 74 -1755 442 -4900
2761 -9441 6486 -12701 2271 -1988 4987 -3416 7899 -4154 3273 -829 6729 -782
9975 135 3704 1047 7031 3211 9511 6186 2538 3046 4065 6775 4384 10709 281
3470 -365 6909 -1879 10005 -1274 2603 -3128 4894 -5411 6686 -2261 1774
-4890 3019 -7675 3634 -1084 239 -2125 377 -3290 435 -204 11 -1185 20 -1375
14z m1085 -2564 c1021 -41 1911 -149 2848 -346 4243 -891 7977 -3420 10402
-7044 2101 -3141 3059 -6867 2739 -10665 -433 -5151 -3261 -9817 -7647 -12617
-3733 -2383 -8280 -3168 -12642 -2183 -3626 819 -6931 2893 -9275 5820 -1137
1420 -2019 2980 -2640 4669 -1359 3699 -1354 7816 15 11512 925 2499 2441
4739 4425 6544 2026 1842 4478 3156 7121 3819 154 39 322 79 374 91 1065 234
2006 357 3060 399 289 12 940 12 1220 1z"/>
<path d="M29284 28204 c-290 -48 -539 -190 -759 -430 -87 -95 -2529 -2712
-9224 -9882 -992 -1062 -1805 -1931 -1806 -1930 -3 4 -3525 3769 -4372 4673
-523 558 -722 765 -780 808 -153 113 -354 200 -538 232 -117 20 -333 20 -450
0 -256 -45 -491 -170 -680 -359 -185 -186 -296 -394 -352 -656 -25 -118 -24
-372 1 -489 39 -181 104 -337 199 -474 53 -77 5996 -6450 6126 -6569 184 -169
442 -286 701 -318 117 -14 205 -13 328 6 265 39 513 161 704 345 107 104
12040 12894 12113 12984 145 178 235 383 270 620 19 131 19 230 -1 363 -53
357 -255 678 -550 875 -160 106 -318 170 -501 202 -105 18 -318 18 -429 -1z"/>
</g>
</svg>
